<?xml version="1.0" encoding="UTF-8" standalone="no"?>
<!-- Created with Inkscape (http://www.inkscape.org/) -->

<svg
   xmlns:dc="http://purl.org/dc/elements/1.1/"
   xmlns:cc="http://creativecommons.org/ns#"
   xmlns:rdf="http://www.w3.org/1999/02/22-rdf-syntax-ns#"
   xmlns:svg="http://www.w3.org/2000/svg"
   xmlns="http://www.w3.org/2000/svg"
   xmlns:xlink="http://www.w3.org/1999/xlink"
   xmlns:sodipodi="http://sodipodi.sourceforge.net/DTD/sodipodi-0.dtd"
   xmlns:inkscape="http://www.inkscape.org/namespaces/inkscape"
   width="1488.189"
   height="1052.3622"
   id="svg10067"
   version="1.1"
   inkscape:version="0.48.2 r9819"
   sodipodi:docname="03.design_system_map.svg"
   inkscape:export-filename="../03.design_system_map.png"
   inkscape:export-xdpi="200"
   inkscape:export-ydpi="200">
  <defs
     id="defs3">
    <marker
       inkscape:stockid="DotS"
       orient="auto"
       refY="0.0"
       refX="0.0"
       id="DotS"
       style="overflow:visible">
      <path
         id="path4185"
         d="M -2.5,-1.0 C -2.5,1.7600000 -4.7400000,4.0 -7.5,4.0 C -10.260000,4.0 -12.5,1.7600000 -12.5,-1.0 C -12.5,-3.7600000 -10.260000,-6.0 -7.5,-6.0 C -4.7400000,-6.0 -2.5,-3.7600000 -2.5,-1.0 z "
         style="fill-rule:evenodd;stroke:#000000;stroke-width:1.0pt;marker-start:none;marker-end:none"
         transform="scale(0.2) translate(7.4, 1)" />
    </marker>
    <marker
       inkscape:stockid="DiamondS"
       orient="auto"
       refY="0.0"
       refX="0.0"
       id="DiamondS"
       style="overflow:visible">
      <path
         id="path4203"
         d="M 0,-7.0710768 L -7.0710894,0 L 0,7.0710589 L 7.0710462,0 L 0,-7.0710768 z "
         style="fill-rule:evenodd;stroke:#000000;stroke-width:1.0pt;marker-start:none"
         transform="scale(0.2)" />
    </marker>
    <marker
       inkscape:stockid="TriangleOutS"
       orient="auto"
       refY="0.0"
       refX="0.0"
       id="TriangleOutS"
       style="overflow:visible">
      <path
         id="path4266"
         d="M 5.77,0.0 L -2.88,5.0 L -2.88,-5.0 L 5.77,0.0 z "
         style="fill-rule:evenodd;stroke:#000000;stroke-width:1.0pt;marker-start:none"
         transform="scale(0.2)" />
    </marker>
    <marker
       inkscape:stockid="TriangleOutM"
       orient="auto"
       refY="0.0"
       refX="0.0"
       id="TriangleOutM"
       style="overflow:visible">
      <path
         id="path4263"
         d="M 5.77,0.0 L -2.88,5.0 L -2.88,-5.0 L 5.77,0.0 z "
         style="fill-rule:evenodd;stroke:#000000;stroke-width:1.0pt;marker-start:none"
         transform="scale(0.4)" />
    </marker>
    <marker
       inkscape:stockid="Arrow2Lend"
       orient="auto"
       refY="0.0"
       refX="0.0"
       id="Arrow2Lend"
       style="overflow:visible;">
      <path
         id="path4138"
         style="font-size:12.0;fill-rule:evenodd;stroke-width:0.62500000;stroke-linejoin:round;"
         d="M 8.7185878,4.0337352 L -2.2072895,0.016013256 L 8.7185884,-4.0017078 C 6.9730900,-1.6296469 6.9831476,1.6157441 8.7185878,4.0337352 z "
         transform="scale(1.1) rotate(180) translate(1,0)" />
    </marker>
    <clipPath
       id="clipPath6952"
       clipPathUnits="userSpaceOnUse">
      <path
         inkscape:connector-curvature="0"
         id="path6954"
         d="m 4645.513,80.79 78.21,0 0,78.209 -78.21,0 0,-78.209 z" />
    </clipPath>
    <clipPath
       id="clipPath6936"
       clipPathUnits="userSpaceOnUse">
      <path
         inkscape:connector-curvature="0"
         id="path6938"
         d="m 4814.121,80.79 78.209,0 0,78.209 -78.209,0 0,-78.209 z" />
    </clipPath>
    <clipPath
       id="clipPath6920"
       clipPathUnits="userSpaceOnUse">
      <path
         inkscape:connector-curvature="0"
         id="path6922"
         d="m 4729.817,80.79 78.21,0 0,78.209 -78.21,0 0,-78.209 z" />
    </clipPath>
    <clipPath
       id="clipPath6904"
       clipPathUnits="userSpaceOnUse">
      <path
         inkscape:connector-curvature="0"
         id="path6906"
         d="m 4561.208,80.79 78.209,0 0,78.209 -78.209,0 0,-78.209 z" />
    </clipPath>
    <clipPath
       id="clipPath6888"
       clipPathUnits="userSpaceOnUse">
      <path
         inkscape:connector-curvature="0"
         id="path6890"
         d="m 4907.566,80.79 78.21,0 0,78.209 -78.21,0 0,-78.209 z" />
    </clipPath>
    <clipPath
       id="clipPath6102"
       clipPathUnits="userSpaceOnUse">
      <path
         inkscape:connector-curvature="0"
         id="path6104"
         d="m 4799.799,924.518 -54.288,-62.187 0,-197.037 242.624,0 0,259.224 -188.336,0 z" />
    </clipPath>
    <clipPath
       id="clipPath5382"
       clipPathUnits="userSpaceOnUse">
      <path
         inkscape:connector-curvature="0"
         id="path5384"
         d="m 1842.363,2006.469 2.975,-235.296 223.69,-19.173 0,254.469 -226.665,0 z" />
    </clipPath>
    <clipPath
       id="clipPath4662"
       clipPathUnits="userSpaceOnUse">
      <path
         inkscape:connector-curvature="0"
         id="path4664"
         d="m 2296,721.999 259.305,0 0,180.462 -259.305,40.331 0,-220.793 z" />
    </clipPath>
    <clipPath
       id="clipPath3942"
       clipPathUnits="userSpaceOnUse">
      <path
         inkscape:connector-curvature="0"
         id="path3944"
         d="m 861.998,2834.999 216.549,0 0,225.692 -216.549,0 0,-225.692 z" />
    </clipPath>
    <clipPath
       id="clipPath3222"
       clipPathUnits="userSpaceOnUse">
      <path
         inkscape:connector-curvature="0"
         id="path3224"
         d="m 1858,2801.999 203.39,0 0,235.529 -203.39,0 0,-235.529 z" />
    </clipPath>
    <clipPath
       id="clipPath2502"
       clipPathUnits="userSpaceOnUse">
      <path
         inkscape:connector-curvature="0"
         id="path2504"
         d="m 3834.849,2870.811 191.731,0 0,155.782 -191.731,0 0,-155.782 z" />
    </clipPath>
    <clipPath
       id="clipPath1782"
       clipPathUnits="userSpaceOnUse">
      <path
         inkscape:connector-curvature="0"
         id="path1784"
         d="m 3780.544,1810.399 254.959,0 0,198 -254.959,0 0,-198 z" />
    </clipPath>
    <clipPath
       id="clipPath1062"
       clipPathUnits="userSpaceOnUse">
      <path
         inkscape:connector-curvature="0"
         id="path1064"
         d="m 2826.455,2834.999 232.588,0 0,216.603 -232.588,0 0,-216.603 z" />
    </clipPath>
    <clipPath
       id="clipPath342"
       clipPathUnits="userSpaceOnUse">
      <path
         inkscape:connector-curvature="0"
         id="path344"
         d="m 4836.14,2817.905 173.549,0 0,209.572 -173.549,0 0,-209.572 z" />
    </clipPath>
  </defs>
  <sodipodi:namedview
     inkscape:document-units="mm"
     id="base"
     pagecolor="#ffffff"
     bordercolor="#666666"
     borderopacity="1.0"
     inkscape:pageopacity="1"
     inkscape:pageshadow="2"
     inkscape:zoom="0.45991771"
     inkscape:cx="744.09448"
     inkscape:cy="526.18109"
     inkscape:current-layer="layer1"
     showgrid="true"
     units="mm"
     inkscape:window-width="1440"
     inkscape:window-height="795"
     inkscape:window-x="0"
     inkscape:window-y="0"
     inkscape:window-maximized="1"
     showguides="false"
     inkscape:guide-bbox="true">
    <sodipodi:guide
       orientation="0,1"
       position="478.34646,974.40945"
       id="guide24376" />
    <sodipodi:guide
       orientation="1,0"
       position="35.433071,938.97638"
       id="guide24416" />
    <sodipodi:guide
       orientation="1,0"
       position="1452.7559,921.25984"
       id="guide24418" />
    <sodipodi:guide
       orientation="0,1"
       position="974.40945,106.29921"
       id="guide24420" />
    <sodipodi:guide
       orientation="0,1"
       position="389.76378,938.97638"
       id="guide24422" />
    <sodipodi:guide
       orientation="0,1"
       position="701.5748,1009.8425"
       id="guide24424" />
    <sodipodi:guide
       orientation="0,1"
       position="230.31496,921.25984"
       id="guide25257" />
  </sodipodi:namedview>
  <metadata
     id="metadata4">
    <rdf:RDF>
      <cc:Work
         rdf:about="">
        <dc:format>image/svg+xml</dc:format>
        <dc:type
           rdf:resource="http://purl.org/dc/dcmitype/StillImage" />
        <dc:title></dc:title>
      </cc:Work>
    </rdf:RDF>
  </metadata>
  <g
     inkscape:label="Layout"
     inkscape:groupmode="layer"
     id="layer1"
     transform="translate(0,2.988066e-5)">
    <a
       id="a24212"
       xlink:href="http://creativecommons.org/licenses/by-sa/3.0/"
       xlink:title="CC BY-SA"
       transform="matrix(0.56208624,0,0,0.56208624,1028.2309,500.82271)">
      <text
         sodipodi:linespacing="125%"
         style="font-size:17.79086494px;font-style:normal;font-variant:normal;font-weight:300;font-stretch:normal;text-align:start;line-height:125%;writing-mode:lr-tb;text-anchor:start;font-family:TitilliumText25L;-inkscape-font-specification:TitilliumText25L Light"
         y="834.94757"
         x="-406.88306"
         id="text9963">
        <tspan
           sodipodi:role="line"
           id="tspan25394"
           x="-406.88306"
           y="834.94757"
           style="font-size:16.01177788px">This work is licensed under the Creative Commons Attribution-Share Alike 3.0 Unported License.</tspan>
        <tspan
           sodipodi:role="line"
           id="tspan25396"
           x="-406.88306"
           y="854.96228"
           style="font-size:16.01177788px">To view a copy of this license, visit http://creativecommons.org/licenses/by-sa/3.0/</tspan>
        <tspan
           sodipodi:role="line"
           id="tspan25398"
           x="-406.88306"
           y="874.97699"
           style="font-size:16.01177788px">or send a letter to Creative Commons, 171 Second Street, Suite 300, San Francisco, California, 94105, USA.</tspan>
      </text>
    </a>
    <g
       id="g25400"
       transform="matrix(0.83432244,0,0,0.83432244,242.1812,154.35087)">
      <g
         transform="matrix(0.7026078,0,0,-0.7026078,-2047.1135,1073.3221)"
         id="g9971">
        <g
           id="g9973"
           clip-path="url(#clipPath6888)">
          <g
             id="g9975"
             transform="translate(4946.6187,152.9518)">
            <path
               d="m 0,0 c 9.147,0 16.861,-3.14 23.14,-9.419 6.317,-6.318 9.477,-14.032 9.477,-23.14 0,-9.148 -3.101,-16.764 -9.303,-22.849 -6.59,-6.474 -14.36,-9.71 -23.314,-9.71 -8.8,0 -16.435,3.198 -22.907,9.594 -6.396,6.395 -9.594,14.05 -9.594,22.965 0,8.915 3.198,16.628 9.594,23.14 C -16.628,-3.14 -8.993,0 0,0 m 0.116,-5.872 c -7.404,0 -13.663,-2.598 -18.779,-7.791 -5.312,-5.427 -7.965,-11.725 -7.965,-18.896 0,-7.21 2.634,-13.451 7.906,-18.721 5.271,-5.272 11.551,-7.907 18.838,-7.907 7.248,0 13.566,2.654 18.954,7.965 5.117,4.922 7.675,11.143 7.675,18.663 0,7.403 -2.598,13.702 -7.791,18.896 C 13.759,-8.47 7.48,-5.872 0.116,-5.872 m 8.721,-18.606 0,-13.314 -3.721,0 0,-15.814 -10.116,0 0,15.814 -3.722,0 0,13.314 c 0,0.582 0.204,1.076 0.611,1.483 0.407,0.407 0.902,0.611 1.483,0.611 l 13.372,0 c 0.543,0 1.027,-0.204 1.454,-0.611 0.426,-0.407 0.639,-0.901 0.639,-1.483 m -13.314,8.373 c 0,3.061 1.512,4.593 4.535,4.593 3.023,0 4.535,-1.532 4.535,-4.593 0,-3.023 -1.512,-4.535 -4.535,-4.535 -3.023,0 -4.535,1.512 -4.535,4.535"
               style="fill:#000000;fill-opacity:1;fill-rule:nonzero;stroke:none"
               id="path9977"
               inkscape:connector-curvature="0" />
          </g>
          <g
             id="g9979"
             transform="translate(4896.9019,80.7901)">
            <path
               d="m 0,0 -31.995,0 m 42.66,-10.665 0,-31.995 M 0,78.21 l -31.995,0 m 42.66,10.665 0,31.995 m 88.875,-42.66 31.995,0 m -42.66,10.665 0,31.995 M 99.54,0 131.535,0 m -42.66,-10.665 0,-31.995"
               style="fill:none;stroke:#000000;stroke-width:0.59200001;stroke-linecap:butt;stroke-linejoin:miter;stroke-miterlimit:4;stroke-opacity:1;stroke-dasharray:none"
               id="path9981"
               inkscape:connector-curvature="0" />
          </g>
        </g>
      </g>
      <g
         transform="matrix(0.7026078,0,0,-0.7026078,-2047.1135,1073.3221)"
         id="g9983">
        <g
           id="g9985"
           clip-path="url(#clipPath6904)">
          <g
             id="g9987"
             transform="translate(4600.2598,152.9518)">
            <path
               d="m 0,0 c 9.108,0 16.861,-3.179 23.256,-9.535 3.061,-3.062 5.387,-6.561 6.977,-10.495 1.589,-3.934 2.384,-8.11 2.384,-12.529 0,-4.458 -0.785,-8.634 -2.355,-12.529 -1.57,-3.896 -3.887,-7.336 -6.948,-10.32 -3.178,-3.14 -6.783,-5.544 -10.814,-7.209 -4.031,-1.667 -8.198,-2.501 -12.5,-2.501 -4.303,0 -8.421,0.823 -12.355,2.472 -3.935,1.646 -7.462,4.03 -10.582,7.151 -3.121,3.119 -5.494,6.637 -7.122,10.552 -1.628,3.915 -2.442,8.043 -2.442,12.384 0,4.302 0.823,8.44 2.472,12.413 1.646,3.973 4.04,7.529 7.179,10.669 C -16.648,-3.16 -9.032,0 0,0 m 0.116,-5.872 c -7.442,0 -13.702,-2.598 -18.779,-7.791 -2.558,-2.598 -4.526,-5.515 -5.901,-8.751 -1.377,-3.236 -2.064,-6.618 -2.064,-10.145 0,-3.489 0.687,-6.851 2.064,-10.087 1.375,-3.237 3.343,-6.125 5.901,-8.663 2.558,-2.54 5.445,-4.477 8.663,-5.814 3.216,-1.338 6.588,-2.006 10.116,-2.006 3.488,0 6.869,0.678 10.146,2.035 3.275,1.356 6.23,3.314 8.866,5.872 5.078,4.961 7.617,11.182 7.617,18.663 0,3.605 -0.66,7.015 -1.977,10.233 -1.318,3.217 -3.237,6.084 -5.756,8.605 -5.233,5.232 -11.532,7.849 -18.896,7.849 m -0.407,-21.28 -4.36,-2.267 c -0.466,0.968 -1.038,1.647 -1.716,2.035 -0.678,0.387 -1.308,0.581 -1.889,0.581 -2.907,0 -4.361,-1.919 -4.361,-5.756 0,-1.744 0.368,-3.14 1.105,-4.186 0.736,-1.047 1.821,-1.57 3.256,-1.57 1.899,0 3.236,0.93 4.012,2.791 l 4.012,-2.035 c -0.853,-1.59 -2.036,-2.84 -3.548,-3.75 -1.511,-0.911 -3.178,-1.367 -4.999,-1.367 -2.908,0 -5.253,0.892 -7.035,2.675 -1.783,1.783 -2.675,4.264 -2.675,7.442 0,3.101 0.902,5.562 2.704,7.384 1.802,1.822 4.078,2.732 6.831,2.732 4.031,0 6.919,-1.569 8.663,-4.709 m 18.779,0 -4.301,-2.267 c -0.466,0.968 -1.038,1.647 -1.716,2.035 -0.679,0.387 -1.328,0.581 -1.948,0.581 -2.907,0 -4.36,-1.919 -4.36,-5.756 0,-1.744 0.368,-3.14 1.104,-4.186 0.736,-1.047 1.822,-1.57 3.256,-1.57 1.899,0 3.236,0.93 4.012,2.791 l 4.069,-2.035 c -0.892,-1.59 -2.092,-2.84 -3.604,-3.75 -1.511,-0.911 -3.159,-1.367 -4.942,-1.367 -2.946,0 -5.301,0.892 -7.064,2.675 -1.764,1.783 -2.645,4.264 -2.645,7.442 0,3.101 0.901,5.562 2.703,7.384 1.802,1.822 4.079,2.732 6.832,2.732 4.031,0 6.899,-1.569 8.604,-4.709"
               style="fill:#000000;fill-opacity:1;fill-rule:nonzero;stroke:none"
               id="path9989"
               inkscape:connector-curvature="0" />
          </g>
          <g
             id="g9991"
             transform="translate(4550.543,80.7901)">
            <path
               d="m 0,0 -31.995,0 m 42.66,-10.665 0,-31.995 M 0,78.21 l -31.995,0 m 42.66,10.665 0,31.995 m 88.875,-42.66 31.995,0 m -42.66,10.665 0,31.995 M 99.54,0 131.535,0 m -42.66,-10.665 0,-31.995"
               style="fill:none;stroke:#000000;stroke-width:0.59200001;stroke-linecap:butt;stroke-linejoin:miter;stroke-miterlimit:4;stroke-opacity:1;stroke-dasharray:none"
               id="path9993"
               inkscape:connector-curvature="0" />
          </g>
        </g>
      </g>
      <g
         transform="matrix(0.7026078,0,0,-0.7026078,-2047.1135,1073.3221)"
         id="g9995">
        <g
           id="g9997"
           clip-path="url(#clipPath6920)">
          <g
             id="g9999"
             transform="translate(4768.8687,152.8934)">
            <path
               d="m 0,0 c 9.108,0 16.821,-3.159 23.14,-9.477 6.317,-6.279 9.477,-13.974 9.477,-23.082 0,-9.109 -3.101,-16.744 -9.303,-22.907 -6.55,-6.435 -14.322,-9.651 -23.314,-9.651 -8.8,0 -16.435,3.197 -22.907,9.593 -6.396,6.395 -9.594,14.05 -9.594,22.965 0,8.876 3.198,16.57 9.594,23.082 C -16.59,-3.159 -8.954,0 0,0 m 0.116,-5.872 c -7.404,0 -13.663,-2.616 -18.779,-7.849 -5.312,-5.388 -7.965,-11.667 -7.965,-18.838 0,-7.248 2.634,-13.488 7.906,-18.721 5.271,-5.272 11.551,-7.907 18.838,-7.907 7.248,0 13.566,2.654 18.954,7.965 5.117,4.961 7.675,11.183 7.675,18.663 0,7.443 -2.598,13.722 -7.791,18.838 -5.156,5.233 -11.435,7.849 -18.838,7.849 m -14.535,-22.093 c 0.62,3.991 2.228,7.083 4.826,9.273 2.596,2.189 5.756,3.285 9.477,3.285 5.116,0 9.186,-1.648 12.209,-4.942 3.023,-3.295 4.535,-7.52 4.535,-12.675 0,-5 -1.57,-9.157 -4.709,-12.471 -3.14,-3.314 -7.21,-4.971 -12.21,-4.971 -3.683,0 -6.861,1.105 -9.535,3.314 -2.674,2.209 -4.283,5.349 -4.826,9.419 l 8.198,0 c 0.194,-3.954 2.577,-5.93 7.152,-5.93 2.286,0 4.128,0.988 5.523,2.965 1.395,1.977 2.093,4.612 2.093,7.907 0,3.449 -0.639,6.075 -1.918,7.878 -1.28,1.802 -3.121,2.704 -5.524,2.704 -4.341,0 -6.783,-1.919 -7.326,-5.756 l 2.384,0 -6.454,-6.454 -6.453,6.454 2.558,0 z"
               style="fill:#000000;fill-opacity:1;fill-rule:nonzero;stroke:none"
               id="path10001"
               inkscape:connector-curvature="0" />
          </g>
          <g
             id="g10003"
             transform="translate(4719.1519,80.7901)">
            <path
               d="m 0,0 -31.995,0 m 42.66,-10.665 0,-31.995 M 0,78.21 l -31.995,0 m 42.66,10.665 0,31.995 m 88.875,-42.66 31.995,0 m -42.66,10.665 0,31.995 M 99.54,0 131.535,0 m -42.66,-10.665 0,-31.995"
               style="fill:none;stroke:#000000;stroke-width:0.59200001;stroke-linecap:butt;stroke-linejoin:miter;stroke-miterlimit:4;stroke-opacity:1;stroke-dasharray:none"
               id="path10005"
               inkscape:connector-curvature="0" />
          </g>
        </g>
      </g>
      <g
         transform="matrix(0.7026078,0,0,-0.7026078,-2047.1135,1073.3221)"
         id="g10007">
        <g
           id="g10009"
           clip-path="url(#clipPath6936)">
          <g
             id="g10011"
             transform="translate(4853.1729,152.8934)">
            <path
               d="m 0,0 c 9.108,0 16.821,-3.159 23.14,-9.477 6.317,-6.279 9.477,-13.974 9.477,-23.082 0,-9.109 -3.101,-16.744 -9.303,-22.907 -6.55,-6.435 -14.322,-9.651 -23.314,-9.651 -8.8,0 -16.435,3.197 -22.907,9.593 -6.396,6.395 -9.594,14.05 -9.594,22.965 0,8.876 3.198,16.57 9.594,23.082 C -16.59,-3.159 -8.954,0 0,0 m 0.116,-5.872 c -7.404,0 -13.663,-2.616 -18.779,-7.849 -5.312,-5.388 -7.965,-11.667 -7.965,-18.838 0,-7.248 2.634,-13.488 7.906,-18.721 5.271,-5.272 11.551,-7.907 18.838,-7.907 7.248,0 13.566,2.654 18.954,7.965 5.117,4.961 7.675,11.183 7.675,18.663 0,7.443 -2.598,13.722 -7.791,18.838 -5.156,5.233 -11.435,7.849 -18.838,7.849 m 21.221,-27.268 0.64,-0.291 0,-9.186 -0.581,-0.291 -7.907,-3.372 -0.349,-0.116 -0.407,0.116 -17.036,7.035 -0.581,0.233 -8.43,-3.489 -8.315,3.605 0,8.372 7.792,3.256 -0.059,0.058 0,9.187 8.838,3.895 19.942,-8.256 0,-8.082 6.453,-2.674 z m -9.244,-10.698 0,5.756 -0.058,0 0,0.233 -14.942,6.105 0,-5.931 14.942,-6.163 0,0.058 0.058,-0.058 z m 0.988,7.558 5.233,2.152 -4.825,2.035 -5.117,-2.152 4.709,-2.035 z m 6.861,-5 0,5.64 -5.814,-2.442 0,-5.698 5.814,2.5 z"
               style="fill:#000000;fill-opacity:1;fill-rule:nonzero;stroke:none"
               id="path10013"
               inkscape:connector-curvature="0" />
          </g>
          <g
             id="g10015"
             transform="translate(4803.4561,80.7901)">
            <path
               d="m 0,0 -31.995,0 m 42.66,-10.665 0,-31.995 M 0,78.21 l -31.995,0 m 42.66,10.665 0,31.995 m 88.875,-42.66 31.995,0 m -42.66,10.665 0,31.995 M 99.54,0 131.535,0 m -42.66,-10.665 0,-31.995"
               style="fill:none;stroke:#000000;stroke-width:0.59200001;stroke-linecap:butt;stroke-linejoin:miter;stroke-miterlimit:4;stroke-opacity:1;stroke-dasharray:none"
               id="path10017"
               inkscape:connector-curvature="0" />
          </g>
        </g>
      </g>
      <g
         transform="matrix(0.7026078,0,0,-0.7026078,-2047.1135,1073.3221)"
         id="g10019">
        <g
           id="g10021"
           clip-path="url(#clipPath6952)">
          <g
             id="g10023"
             transform="translate(4684.5645,152.8934)">
            <path
               d="m 0,0 c 9.108,0 16.821,-3.159 23.14,-9.477 6.317,-6.279 9.477,-13.974 9.477,-23.082 0,-9.109 -3.101,-16.744 -9.303,-22.907 -6.55,-6.435 -14.322,-9.651 -23.314,-9.651 -8.8,0 -16.435,3.197 -22.907,9.593 -6.396,6.395 -9.594,14.05 -9.594,22.965 0,8.876 3.198,16.57 9.594,23.082 C -16.59,-3.159 -8.954,0 0,0 m 0.116,-5.872 c -7.404,0 -13.663,-2.616 -18.779,-7.849 -5.312,-5.388 -7.965,-11.667 -7.965,-18.838 0,-7.248 2.634,-13.488 7.906,-18.721 5.271,-5.272 11.551,-7.907 18.838,-7.907 7.248,0 13.566,2.654 18.954,7.965 5.117,4.961 7.675,11.183 7.675,18.663 0,7.443 -2.598,13.722 -7.791,18.838 -5.156,5.233 -11.435,7.849 -18.838,7.849 m 13.256,-17.384 c 0.503,0 0.931,-0.174 1.279,-0.523 0.349,-0.349 0.524,-0.776 0.524,-1.28 l 0,-23.954 c 0,-0.504 -0.175,-0.929 -0.524,-1.278 -0.348,-0.349 -0.776,-0.524 -1.279,-0.524 l -17.732,0 c -0.505,0 -0.931,0.175 -1.28,0.524 -0.349,0.349 -0.523,0.774 -0.523,1.278 l 0,7.094 -7.093,0 c -0.505,0 -0.931,0.174 -1.279,0.523 -0.349,0.349 -0.524,0.775 -0.524,1.279 l 0,23.954 c 0,0.465 0.155,0.862 0.466,1.192 0.309,0.329 0.697,0.532 1.162,0.61 l 0.175,0 17.733,0 c 0.503,0 0.93,-0.174 1.279,-0.523 0.349,-0.349 0.523,-0.776 0.523,-1.279 l 0,-7.093 7.093,0 z m -24.884,-15.116 5.349,0 0,13.313 c 0,0.466 0.155,0.863 0.465,1.192 0.31,0.329 0.678,0.533 1.105,0.611 l 0.233,0 7.093,0 0,5.291 -14.245,0 0,-20.407 z m 23.14,11.569 -14.245,0 0,-20.408 14.245,0 0,20.408 z"
               style="fill:#000000;fill-opacity:1;fill-rule:nonzero;stroke:none"
               id="path10025"
               inkscape:connector-curvature="0" />
          </g>
          <g
             id="g10027"
             transform="translate(4634.8477,80.7901)">
            <path
               d="m 0,0 -31.995,0 m 42.66,-10.665 0,-31.995 M 0,78.21 l -31.995,0 m 42.66,10.665 0,31.995 m 88.875,-42.66 31.995,0 m -42.66,10.665 0,31.995 M 99.54,0 131.535,0 m -42.66,-10.665 0,-31.995"
               style="fill:none;stroke:#000000;stroke-width:0.59200001;stroke-linecap:butt;stroke-linejoin:miter;stroke-miterlimit:4;stroke-opacity:1;stroke-dasharray:none"
               id="path10029"
               inkscape:connector-curvature="0" />
          </g>
        </g>
      </g>
    </g>
    <g
       style="font-size:40px;font-style:normal;font-weight:normal;line-height:125%;letter-spacing:0px;word-spacing:0px;fill:#000000;fill-opacity:1;stroke:none;font-family:Sans"
       id="text2993"
       transform="translate(-54.489215,-280.29548)"
       inkscape:export-filename="/Users/massimomenichinelli/Dropbox/openp2pdesign.org/2013/Cava dei Tirreni/toolkit/logo.png"
       inkscape:export-xdpi="100.01622"
       inkscape:export-ydpi="100.01622">
      <path
         d="m 102.58521,358.34765 c -1.68001,0 -3.264007,-0.312 -4.751995,-0.936 -1.440009,-0.624 -2.712008,-1.488 -3.816,-2.592 -1.104006,-1.10399 -1.968005,-2.37599 -2.592,-3.816 -0.624003,-1.48799 -0.936003,-3.07199 -0.936,-4.752 l 0,-24.48 c -3e-6,-1.67996 0.311997,-3.23996 0.936,-4.68 0.623995,-1.48795 1.487994,-2.78395 2.592,-3.888 1.103992,-1.10395 2.375991,-1.96795 3.816,-2.592 1.487988,-0.62395 3.071985,-0.93595 4.751995,-0.936 1.67999,5e-5 3.23999,0.31205 4.68,0.936 1.48798,0.62405 2.78398,1.48805 3.888,2.592 1.10398,1.10405 1.96798,2.40005 2.592,3.888 0.62398,1.44004 0.93598,3.00004 0.936,4.68 l 0,24.48 c -2e-5,1.68001 -0.31202,3.26401 -0.936,4.752 -0.62402,1.44001 -1.48802,2.71201 -2.592,3.816 -1.10402,1.104 -2.40002,1.968 -3.888,2.592 -1.44001,0.624 -3.00001,0.936 -4.68,0.936 m 0,-41.76 c -1.44001,4e-5 -2.664008,0.50404 -3.671995,1.512 -1.008011,1.00804 -1.51201,2.23204 -1.512,3.672 l 0,24.48 c -10e-6,1.44001 0.503989,2.66401 1.512,3.672 1.007987,1.00801 2.231985,1.51201 3.671995,1.512 1.43999,10e-6 2.66399,-0.50399 3.672,-1.512 1.00799,-1.00799 1.51198,-2.23199 1.512,-3.672 l 0,-24.48 c -2e-5,-1.43996 -0.50401,-2.66396 -1.512,-3.672 -1.00801,-1.00796 -2.23201,-1.51196 -3.672,-1.512"
         style="font-size:72px;font-variant:normal;font-weight:bold;font-stretch:condensed;text-align:start;line-height:125%;writing-mode:lr-tb;text-anchor:start;font-family:Miso;-inkscape-font-specification:Miso Bold Condensed"
         id="path2998"
         inkscape:connector-curvature="0" />
      <path
         d="m 124.62171,372.53165 c -0.912,-1e-5 -1.68,-0.31201 -2.304,-0.936 -0.624,-0.62401 -0.936,-1.39201 -0.936,-2.304 l 0,-42.912 c 0,-0.91196 0.312,-1.67996 0.936,-2.304 0.624,-0.62396 1.392,-0.93596 2.304,-0.936 l 7.2,0 c 1.43999,4e-5 2.78399,0.28804 4.032,0.864 1.29599,0.52804 2.39998,1.27204 3.312,2.232 0.95998,0.91203 1.70398,2.01603 2.232,3.312 0.57598,1.24803 0.86398,2.59203 0.864,4.032 l 0,13.824 c -2e-5,1.44001 -0.28802,2.80801 -0.864,4.104 -0.52802,1.24801 -1.27202,2.35201 -2.232,3.312 -0.91202,0.912 -2.01601,1.632 -3.312,2.16 -1.24801,0.576 -2.59201,0.864 -4.032,0.864 l -3.96,0 0,11.448 c -1e-5,0.91199 -0.31201,1.67999 -0.936,2.304 -0.624,0.62399 -1.392,0.93599 -2.304,0.936 m 11.16,-38.952 c -1e-5,-1.10397 -0.38401,-2.03997 -1.152,-2.808 -0.76801,-0.76797 -1.70401,-1.15197 -2.808,-1.152 l -3.96,0 0,21.744 3.96,0 c 1.10399,10e-6 2.03999,-0.38399 2.808,-1.152 0.76799,-0.76799 1.15199,-1.70399 1.152,-2.808 l 0,-13.824"
         style="font-size:72px;font-variant:normal;font-weight:bold;font-stretch:condensed;text-align:start;line-height:125%;writing-mode:lr-tb;text-anchor:start;font-family:Miso;-inkscape-font-specification:Miso Bold Condensed"
         id="path3000"
         inkscape:connector-curvature="0" />
      <path
         d="m 154.98209,357.33965 c -2.01601,-0.816 -3.60001,-2.08799 -4.752,-3.816 -1.152,-1.72799 -1.728,-3.67199 -1.728,-5.832 l 0,-14.4 c 0,-1.43997 0.264,-2.78397 0.792,-4.032 0.576,-1.29597 1.31999,-2.39997 2.232,-3.312 0.95999,-0.95996 2.06399,-1.70396 3.312,-2.232 1.29599,-0.57596 2.66399,-0.86396 4.104,-0.864 1.43998,4e-5 2.78398,0.28804 4.032,0.864 1.29598,0.52804 2.39998,1.27204 3.312,2.232 0.95998,0.91203 1.70398,2.01603 2.232,3.312 0.57598,1.24803 0.86398,2.59203 0.864,4.032 l 0,7.2 c -2e-5,0.91202 -0.31202,1.68002 -0.936,2.304 -0.62402,0.62402 -1.39202,0.93602 -2.304,0.936 l -11.16,0 0,3.96 c -1e-5,0.81601 0.21599,1.56001 0.648,2.232 0.43199,0.62401 1.03199,1.10401 1.8,1.44 0.76799,0.28801 1.53599,0.36001 2.304,0.216 0.76798,-0.14399 1.43998,-0.50399 2.016,-1.08 0.62398,-0.67199 1.36798,-1.00799 2.232,-1.008 0.91198,1e-5 1.70398,0.33601 2.376,1.008 0.62398,0.67201 0.93598,1.44001 0.936,2.304 -2e-5,0.86401 -0.31202,1.63201 -0.936,2.304 -1.53602,1.488 -3.33602,2.424 -5.4,2.808 -2.01601,0.432 -4.00801,0.24 -5.976,-0.576 m 3.96,-28.008 c -1.10401,3e-5 -2.04001,0.38403 -2.808,1.152 -0.76801,0.76803 -1.15201,1.70403 -1.152,2.808 l 0,3.96 7.92,0 0,-3.96 c -2e-5,-1.10397 -0.38402,-2.03997 -1.152,-2.808 -0.76802,-0.76797 -1.70401,-1.15197 -2.808,-1.152"
         style="font-size:72px;font-variant:normal;font-weight:bold;font-stretch:condensed;text-align:start;line-height:125%;writing-mode:lr-tb;text-anchor:start;font-family:Miso;-inkscape-font-specification:Miso Bold Condensed"
         id="path3002"
         inkscape:connector-curvature="0" />
      <path
         d="m 179.04359,358.13165 c -0.91201,0 -1.68001,-0.312 -2.304,-0.936 -0.624,-0.624 -0.936,-1.392 -0.936,-2.304 l 0,-28.512 c 0,-0.91196 0.312,-1.67996 0.936,-2.304 0.62399,-0.62396 1.39199,-0.93596 2.304,-0.936 l 7.2,0 c 1.43998,4e-5 2.78398,0.28804 4.032,0.864 1.29598,0.52804 2.39998,1.27204 3.312,2.232 0.95998,0.91203 1.70398,2.01603 2.232,3.312 0.57598,1.24803 0.86397,2.59203 0.864,4.032 l 0,21.312 c -3e-5,0.912 -0.33602,1.68 -1.008,2.304 -0.62402,0.624 -1.36802,0.936 -2.232,0.936 -0.91202,0 -1.68002,-0.312 -2.304,-0.936 -0.62402,-0.624 -0.93602,-1.392 -0.936,-2.304 l 0,-21.312 c -2e-5,-1.10397 -0.38402,-2.03997 -1.152,-2.808 -0.76802,-0.76797 -1.70402,-1.15197 -2.808,-1.152 l -3.96,0 0,25.272 c -1e-5,0.912 -0.33601,1.68 -1.008,2.304 -0.62401,0.624 -1.36801,0.936 -2.232,0.936"
         style="font-size:72px;font-variant:normal;font-weight:bold;font-stretch:condensed;text-align:start;line-height:125%;writing-mode:lr-tb;text-anchor:start;font-family:Miso;-inkscape-font-specification:Miso Bold Condensed"
         id="path3004"
         inkscape:connector-curvature="0" />
      <path
         d="m 221.09046,358.34765 c -0.96,0 -1.776,-0.336 -2.448,-1.008 -0.672,-0.672 -1.008,-1.488 -1.008,-2.448 l 0,-41.76 c 0,-0.81595 0.24,-1.53595 0.72,-2.16 0.48,-0.62395 1.128,-1.03195 1.944,-1.224 0.816,-0.19195 1.584,-0.096 2.304,0.288 0.72,0.33605 1.24799,0.88805 1.584,1.656 0.95999,2.11205 1.94399,4.20004 2.952,6.264 0.81599,1.82404 1.72799,3.76804 2.736,5.832 1.00799,2.01603 1.91999,3.91203 2.736,5.688 0.81599,-1.77597 1.70398,-3.67197 2.664,-5.688 1.00798,-2.06396 1.91998,-4.00796 2.736,-5.832 0.95998,-2.06396 1.94398,-4.15195 2.952,-6.264 0.38398,-0.76795 0.91198,-1.31995 1.584,-1.656 0.71998,-0.38395 1.48797,-0.47995 2.304,-0.288 0.81597,0.19205 1.46397,0.60005 1.944,1.224 0.52797,0.62405 0.79197,1.34405 0.792,2.16 l 0,41.76 c -3e-5,0.96 -0.33603,1.776 -1.008,2.448 -0.67203,0.672 -1.48803,1.008 -2.448,1.008 -0.96002,0 -1.77602,-0.336 -2.448,-1.008 -0.67202,-0.672 -1.00802,-1.488 -1.008,-2.448 l 0,-26.28 c -0.62402,1.29603 -1.22402,2.56803 -1.8,3.816 -0.57602,1.24803 -1.10402,2.35203 -1.584,3.312 -0.52802,1.15202 -1.05602,2.25602 -1.584,3.312 -0.28802,0.62402 -0.72002,1.12802 -1.296,1.512 -0.52802,0.33602 -1.12801,0.50402 -1.8,0.504 -1.48801,2e-5 -2.54401,-0.67198 -3.168,-2.016 -0.52801,-1.05598 -1.05601,-2.15998 -1.584,-3.312 -0.48001,-0.95997 -1.00801,-2.06397 -1.584,-3.312 -0.57601,-1.24797 -1.15201,-2.51997 -1.728,-3.816 l 0,26.28 c -1e-5,0.96 -0.33601,1.776 -1.008,2.448 -0.672,0.672 -1.488,1.008 -2.448,1.008"
         style="font-size:72px;font-variant:normal;font-weight:bold;font-stretch:condensed;text-align:start;line-height:125%;writing-mode:lr-tb;text-anchor:start;font-family:Miso;-inkscape-font-specification:Miso Bold Condensed"
         id="path3006"
         inkscape:connector-curvature="0" />
      <path
         d="m 260.87271,357.33965 c -2.016,-0.816 -3.6,-2.08799 -4.752,-3.816 -1.152,-1.72799 -1.728,-3.67199 -1.728,-5.832 l 0,-14.4 c 0,-1.43997 0.264,-2.78397 0.792,-4.032 0.576,-1.29597 1.32,-2.39997 2.232,-3.312 0.96,-0.95996 2.064,-1.70396 3.312,-2.232 1.29599,-0.57596 2.66399,-0.86396 4.104,-0.864 1.43999,4e-5 2.78399,0.28804 4.032,0.864 1.29599,0.52804 2.39998,1.27204 3.312,2.232 0.95998,0.91203 1.70398,2.01603 2.232,3.312 0.57598,1.24803 0.86398,2.59203 0.864,4.032 l 0,7.2 c -2e-5,0.91202 -0.31202,1.68002 -0.936,2.304 -0.62402,0.62402 -1.39202,0.93602 -2.304,0.936 l -11.16,0 0,3.96 c 0,0.81601 0.21599,1.56001 0.648,2.232 0.43199,0.62401 1.03199,1.10401 1.8,1.44 0.76799,0.28801 1.53599,0.36001 2.304,0.216 0.76799,-0.14399 1.43999,-0.50399 2.016,-1.08 0.62399,-0.67199 1.36799,-1.00799 2.232,-1.008 0.91199,1e-5 1.70398,0.33601 2.376,1.008 0.62398,0.67201 0.93598,1.44001 0.936,2.304 -2e-5,0.86401 -0.31202,1.63201 -0.936,2.304 -1.53601,1.488 -3.33601,2.424 -5.4,2.808 -2.01601,0.432 -4.00801,0.24 -5.976,-0.576 m 3.96,-28.008 c -1.10401,3e-5 -2.04001,0.38403 -2.808,1.152 -0.76801,0.76803 -1.152,1.70403 -1.152,2.808 l 0,3.96 7.92,0 0,-3.96 c -10e-6,-1.10397 -0.38401,-2.03997 -1.152,-2.808 -0.76801,-0.76797 -1.70401,-1.15197 -2.808,-1.152"
         style="font-size:72px;font-variant:normal;font-weight:bold;font-stretch:condensed;text-align:start;line-height:125%;writing-mode:lr-tb;text-anchor:start;font-family:Miso;-inkscape-font-specification:Miso Bold Condensed"
         id="path3008"
         inkscape:connector-curvature="0" />
      <path
         d="m 281.76621,329.61965 c -0.912,3e-5 -1.68,-0.31197 -2.304,-0.936 -0.624,-0.62397 -0.936,-1.39197 -0.936,-2.304 0,-0.91196 0.312,-1.67996 0.936,-2.304 0.624,-0.62396 1.392,-0.93596 2.304,-0.936 l 2.52,0 0,-11.448 c 0,-0.91195 0.312,-1.67995 0.936,-2.304 0.624,-0.62395 1.392,-0.93595 2.304,-0.936 0.91199,5e-5 1.67999,0.31205 2.304,0.936 0.62399,0.62405 0.93599,1.39205 0.936,2.304 l 0,11.448 3.96,0 c 0.91199,4e-5 1.67999,0.31204 2.304,0.936 0.62398,0.62404 0.93598,1.39204 0.936,2.304 -2e-5,0.91203 -0.31202,1.68003 -0.936,2.304 -0.62401,0.62403 -1.39201,0.93603 -2.304,0.936 l -3.96,0 0,18.072 c -10e-6,1.10401 0.38399,2.04001 1.152,2.808 0.76799,0.76801 1.70399,1.15201 2.808,1.152 0.91199,10e-6 1.67999,0.31201 2.304,0.936 0.62398,0.62401 0.93598,1.39201 0.936,2.304 -2e-5,0.912 -0.31202,1.68 -0.936,2.304 -0.62401,0.624 -1.39201,0.936 -2.304,0.936 -1.44001,0 -2.80801,-0.288 -4.104,-0.864 -1.24801,-0.528 -2.35201,-1.248 -3.312,-2.16 -0.912,-0.95999 -1.656,-2.06399 -2.232,-3.312 -0.528,-1.29599 -0.792,-2.66399 -0.792,-4.104 l 0,-18.072 -2.52,0 0,0"
         style="font-size:72px;font-variant:normal;font-weight:bold;font-stretch:condensed;text-align:start;line-height:125%;writing-mode:lr-tb;text-anchor:start;font-family:Miso;-inkscape-font-specification:Miso Bold Condensed"
         id="path3010"
         inkscape:connector-curvature="0" />
      <path
         d="m 314.58921,336.96365 0,-3.816 c -10e-6,-0.76797 -0.21601,-1.46397 -0.648,-2.088 -0.43201,-0.67197 -1.00801,-1.15197 -1.728,-1.44 -0.72001,-0.28797 -1.46401,-0.35997 -2.232,-0.216 -0.76801,0.14403 -1.416,0.50403 -1.944,1.08 -0.624,0.62403 -1.392,0.93603 -2.304,0.936 -0.864,3e-5 -1.608,-0.31197 -2.232,-0.936 -0.672,-0.67197 -1.008,-1.43997 -1.008,-2.304 0,-0.86397 0.336,-1.63197 1.008,-2.304 1.488,-1.48796 3.24,-2.42396 5.256,-2.808 2.01599,-0.43196 3.98399,-0.23996 5.904,0.576 1.96799,0.81604 3.52799,2.08803 4.68,3.816 1.15198,1.68003 1.72798,3.57603 1.728,5.688 l 0,21.456 c -2e-5,0.91201 -0.31202,1.68 -0.936,2.304 -0.62402,0.624 -1.39201,0.936 -2.304,0.936 l -7.2,0 c -1.44001,0 -2.808,-0.288 -4.104,-0.864 -1.248,-0.528 -2.352,-1.248 -3.312,-2.16 -0.912,-0.95999 -1.656,-2.06399 -2.232,-3.312 -0.528,-1.29599 -0.792,-2.66399 -0.792,-4.104 0,-1.43999 0.264,-2.78398 0.792,-4.032 0.576,-1.29598 1.32,-2.39998 2.232,-3.312 0.96,-0.95998 2.064,-1.70398 3.312,-2.232 1.296,-0.57598 2.66399,-0.86398 4.104,-0.864 l 3.96,0 m -3.96,6.48 c -1.10401,2e-5 -2.04,0.38402 -2.808,1.152 -0.768,0.76802 -1.152,1.70401 -1.152,2.808 0,1.10401 0.384,2.04001 1.152,2.808 0.768,0.76801 1.70399,1.15201 2.808,1.152 l 3.96,0 0,-7.92 -3.96,0"
         style="font-size:72px;font-variant:normal;font-weight:bold;font-stretch:condensed;text-align:start;line-height:125%;writing-mode:lr-tb;text-anchor:start;font-family:Miso;-inkscape-font-specification:Miso Bold Condensed"
         id="path3012"
         inkscape:connector-curvature="0" />
      <path
         d="m 340.26171,309.96365 c 1.67999,5e-5 3.23999,0.31205 4.68,0.936 1.48798,0.62405 2.78398,1.48805 3.888,2.592 1.10398,1.10405 1.96798,2.40004 2.592,3.888 0.62398,1.44004 0.93598,3.00004 0.936,4.68 l 0,23.904 c -2e-5,1.68001 -0.31202,3.26401 -0.936,4.752 -0.62402,1.44001 -1.48802,2.71201 -2.592,3.816 -1.10402,1.10401 -2.40002,1.968 -3.888,2.592 -1.44001,0.624 -3.00001,0.936 -4.68,0.936 l -8.64,0 c -0.96,0 -1.776,-0.336 -2.448,-1.008 -0.672,-0.672 -1.008,-1.48799 -1.008,-2.448 l 0,-41.184 c 0,-0.95995 0.336,-1.77595 1.008,-2.448 0.672,-0.67195 1.488,-1.00795 2.448,-1.008 l 8.64,0 m 5.184,12.096 c -2e-5,-1.43996 -0.50402,-2.66396 -1.512,-3.672 -1.00801,-1.00796 -2.23201,-1.51196 -3.672,-1.512 l -5.184,0 0,34.272 5.184,0 c 1.43999,10e-6 2.66399,-0.50399 3.672,-1.512 1.00798,-1.00799 1.51198,-2.23199 1.512,-3.672 l 0,-23.904"
         style="font-size:72px;font-variant:normal;font-weight:bold;font-stretch:condensed;text-align:start;line-height:125%;writing-mode:lr-tb;text-anchor:start;font-family:Miso;-inkscape-font-specification:Miso Bold Condensed"
         id="path3014"
         inkscape:connector-curvature="0" />
      <path
         d="m 364.79459,357.33965 c -2.01601,-0.816 -3.60001,-2.08799 -4.752,-3.816 -1.152,-1.72799 -1.728,-3.67199 -1.728,-5.832 l 0,-14.4 c 0,-1.43997 0.264,-2.78397 0.792,-4.032 0.576,-1.29597 1.31999,-2.39997 2.232,-3.312 0.95999,-0.95996 2.06399,-1.70396 3.312,-2.232 1.29599,-0.57596 2.66399,-0.86396 4.104,-0.864 1.43998,4e-5 2.78398,0.28804 4.032,0.864 1.29598,0.52804 2.39998,1.27204 3.312,2.232 0.95998,0.91203 1.70398,2.01603 2.232,3.312 0.57598,1.24803 0.86398,2.59203 0.864,4.032 l 0,7.2 c -2e-5,0.91202 -0.31202,1.68002 -0.936,2.304 -0.62402,0.62402 -1.39202,0.93602 -2.304,0.936 l -11.16,0 0,3.96 c -1e-5,0.81601 0.21599,1.56001 0.648,2.232 0.43199,0.62401 1.03199,1.10401 1.8,1.44 0.76799,0.28801 1.53599,0.36001 2.304,0.216 0.76798,-0.14399 1.43998,-0.50399 2.016,-1.08 0.62398,-0.67199 1.36798,-1.00799 2.232,-1.008 0.91198,1e-5 1.70398,0.33601 2.376,1.008 0.62398,0.67201 0.93598,1.44001 0.936,2.304 -2e-5,0.86401 -0.31202,1.63201 -0.936,2.304 -1.53602,1.488 -3.33602,2.424 -5.4,2.808 -2.01601,0.432 -4.00801,0.24 -5.976,-0.576 m 3.96,-28.008 c -1.10401,3e-5 -2.04001,0.38403 -2.808,1.152 -0.76801,0.76803 -1.15201,1.70403 -1.152,2.808 l 0,3.96 7.92,0 0,-3.96 c -2e-5,-1.10397 -0.38402,-2.03997 -1.152,-2.808 -0.76802,-0.76797 -1.70401,-1.15197 -2.808,-1.152"
         style="font-size:72px;font-variant:normal;font-weight:bold;font-stretch:condensed;text-align:start;line-height:125%;writing-mode:lr-tb;text-anchor:start;font-family:Miso;-inkscape-font-specification:Miso Bold Condensed"
         id="path3016"
         inkscape:connector-curvature="0" />
      <path
         d="m 395.40809,350.71565 c 0.86399,-0.71999 1.24798,-1.65599 1.152,-2.808 -0.096,-1.19999 -0.57601,-2.08799 -1.44,-2.664 l -6.768,-4.68 c -1.20001,-0.86398 -2.16,-1.91998 -2.88,-3.168 -0.72,-1.29598 -1.128,-2.68797 -1.224,-4.176 -0.096,-1.48797 0.12,-2.90397 0.648,-4.248 0.576,-1.39197 1.416,-2.59197 2.52,-3.6 1.10399,-0.95996 2.35199,-1.65596 3.744,-2.088 1.39199,-0.43196 2.83199,-0.52796 4.32,-0.288 1.43998,0.24004 2.75998,0.76804 3.96,1.584 1.19998,0.81604 2.18398,1.87203 2.952,3.168 0.43198,0.76803 0.52798,1.58403 0.288,2.448 -0.19202,0.86403 -0.69602,1.51203 -1.512,1.944 -0.76802,0.43203 -1.58402,0.55203 -2.448,0.36 -0.86402,-0.23997 -1.51202,-0.74397 -1.944,-1.512 -0.52801,-0.91197 -1.29601,-1.43997 -2.304,-1.584 -0.96001,-0.19197 -1.84801,0.072 -2.664,0.792 -0.81601,0.67203 -1.17601,1.53603 -1.08,2.592 0.096,1.00803 0.55199,1.82403 1.368,2.448 l 6.696,4.68 c 1.24798,0.91202 2.23198,2.01602 2.952,3.312 0.76798,1.29602 1.19998,2.71201 1.296,4.248 0.096,1.53601 -0.14402,3.00001 -0.72,4.392 -0.52802,1.39201 -1.36802,2.61601 -2.52,3.672 -1.10402,1.008 -2.37602,1.728 -3.816,2.16 -1.44001,0.432 -2.92801,0.528 -4.464,0.288 -1.53601,-0.24 -2.92801,-0.768 -4.176,-1.584 -1.2,-0.86399 -2.184,-1.96799 -2.952,-3.312 -0.432,-0.76799 -0.552,-1.58399 -0.36,-2.448 0.24,-0.86399 0.744,-1.51199 1.512,-1.944 0.816,-0.43199 1.65599,-0.52799 2.52,-0.288 0.86399,0.19201 1.51199,0.67201 1.944,1.44 0.52799,1.00801 1.36799,1.58401 2.52,1.728 1.05599,0.19201 2.01599,-0.096 2.88,-0.864"
         style="font-size:72px;font-variant:normal;font-weight:bold;font-stretch:condensed;text-align:start;line-height:125%;writing-mode:lr-tb;text-anchor:start;font-family:Miso;-inkscape-font-specification:Miso Bold Condensed"
         id="path3018"
         inkscape:connector-curvature="0" />
      <path
         d="m 412.48109,319.25165 c -1.10401,4e-5 -2.04001,-0.38396 -2.808,-1.152 -0.768,-0.76796 -1.152,-1.70396 -1.152,-2.808 0,-1.10395 0.384,-2.03995 1.152,-2.808 0.76799,-0.76795 1.70399,-1.15195 2.808,-1.152 1.10399,5e-5 2.03999,0.38405 2.808,1.152 0.76799,0.76805 1.15199,1.70405 1.152,2.808 -10e-6,1.10404 -0.38401,2.04004 -1.152,2.808 -0.76801,0.76804 -1.70401,1.15204 -2.808,1.152 m 3.24,35.64 c -1e-5,0.912 -0.31201,1.68 -0.936,2.304 -0.62401,0.624 -1.39201,0.936 -2.304,0.936 -0.91201,0 -1.68001,-0.312 -2.304,-0.936 -0.624,-0.624 -0.936,-1.392 -0.936,-2.304 l 0,-28.8 c 0,-0.91196 0.312,-1.67996 0.936,-2.304 0.62399,-0.62396 1.39199,-0.93596 2.304,-0.936 0.91199,4e-5 1.67999,0.31204 2.304,0.936 0.62399,0.62404 0.93599,1.39204 0.936,2.304 l 0,28.8"
         style="font-size:72px;font-variant:normal;font-weight:bold;font-stretch:condensed;text-align:start;line-height:125%;writing-mode:lr-tb;text-anchor:start;font-family:Miso;-inkscape-font-specification:Miso Bold Condensed"
         id="path3020"
         inkscape:connector-curvature="0" />
      <path
         d="m 433.16084,357.84365 c -1.44001,0 -2.80801,-0.288 -4.104,-0.864 -1.24801,-0.528 -2.35201,-1.248 -3.312,-2.16 -0.91201,-0.95999 -1.656,-2.06399 -2.232,-3.312 -0.528,-1.29599 -0.792,-2.66399 -0.792,-4.104 l 0,-13.824 c 0,-1.43997 0.264,-2.78397 0.792,-4.032 0.576,-1.29597 1.31999,-2.39997 2.232,-3.312 0.95999,-0.95996 2.06399,-1.70396 3.312,-2.232 1.29599,-0.57596 2.66399,-0.86396 4.104,-0.864 l 7.2,0 c 0.91198,4e-5 1.67998,0.31204 2.304,0.936 0.62398,0.62404 0.93598,1.39204 0.936,2.304 l 0,35.712 c -2e-5,2.16 -0.57602,4.10399 -1.728,5.832 -1.15202,1.72799 -2.71202,2.99999 -4.68,3.816 -2.01602,0.81599 -4.05601,1.00799 -6.12,0.576 -2.01601,-0.38401 -3.76801,-1.32001 -5.256,-2.808 -0.67201,-0.67201 -1.00801,-1.44001 -1.008,-2.304 -10e-6,-0.86401 0.33599,-1.632 1.008,-2.304 0.62399,-0.672 1.36799,-1.008 2.232,-1.008 0.91199,0 1.67999,0.336 2.304,1.008 0.57599,0.576 1.24799,0.93599 2.016,1.08 0.81599,0.14399 1.58399,0.072 2.304,-0.216 0.76798,-0.336 1.36798,-0.84 1.8,-1.512 0.43198,-0.624 0.64798,-1.344 0.648,-2.16 l 0,-4.248 -3.96,0 m 0,-28.224 c -1.10401,3e-5 -2.04001,0.38403 -2.808,1.152 -0.76801,0.76803 -1.15201,1.70403 -1.152,2.808 l 0,13.824 c -1e-5,1.10401 0.38399,2.04001 1.152,2.808 0.76799,0.76801 1.70399,1.15201 2.808,1.152 l 3.96,0 0,-21.744 -3.96,0"
         style="font-size:72px;font-variant:normal;font-weight:bold;font-stretch:condensed;text-align:start;line-height:125%;writing-mode:lr-tb;text-anchor:start;font-family:Miso;-inkscape-font-specification:Miso Bold Condensed"
         id="path3022"
         inkscape:connector-curvature="0" />
      <path
         d="m 454.38734,358.13165 c -0.91201,0 -1.68001,-0.312 -2.304,-0.936 -0.624,-0.624 -0.936,-1.392 -0.936,-2.304 l 0,-28.512 c 0,-0.91196 0.312,-1.67996 0.936,-2.304 0.62399,-0.62396 1.39199,-0.93596 2.304,-0.936 l 7.2,0 c 1.43998,4e-5 2.78398,0.28804 4.032,0.864 1.29598,0.52804 2.39998,1.27204 3.312,2.232 0.95998,0.91203 1.70398,2.01603 2.232,3.312 0.57598,1.24803 0.86397,2.59203 0.864,4.032 l 0,21.312 c -3e-5,0.912 -0.33602,1.68 -1.008,2.304 -0.62402,0.624 -1.36802,0.936 -2.232,0.936 -0.91202,0 -1.68002,-0.312 -2.304,-0.936 -0.62402,-0.624 -0.93602,-1.392 -0.936,-2.304 l 0,-21.312 c -2e-5,-1.10397 -0.38402,-2.03997 -1.152,-2.808 -0.76802,-0.76797 -1.70402,-1.15197 -2.808,-1.152 l -3.96,0 0,25.272 c -1e-5,0.912 -0.33601,1.68 -1.008,2.304 -0.62401,0.624 -1.36801,0.936 -2.232,0.936"
         style="font-size:72px;font-variant:normal;font-weight:bold;font-stretch:condensed;text-align:start;line-height:125%;writing-mode:lr-tb;text-anchor:start;font-family:Miso;-inkscape-font-specification:Miso Bold Condensed"
         id="path3024"
         inkscape:connector-curvature="0" />
    </g>
    <text
       xml:space="preserve"
       style="font-size:40px;font-style:normal;font-variant:normal;font-weight:600;font-stretch:normal;text-align:start;line-height:125%;letter-spacing:0px;word-spacing:0px;writing-mode:lr-tb;text-anchor:start;fill:#000000;fill-opacity:1;stroke:none;font-family:TitilliumText25L;-inkscape-font-specification:TitilliumText25L Semi-Bold"
       x="494.02298"
       y="77.952705"
       id="text24378"
       sodipodi:linespacing="125%"><tspan
         sodipodi:role="line"
         id="tspan24380"
         x="494.02298"
         y="77.952705">System Map</tspan></text>
    <text
       sodipodi:linespacing="125%"
       id="text25202"
       y="77.952705"
       x="425.19684"
       style="font-size:20px;font-style:normal;font-variant:normal;font-weight:600;font-stretch:normal;text-align:start;line-height:125%;letter-spacing:0px;word-spacing:0px;writing-mode:lr;text-anchor:start;fill:#000000;fill-opacity:1;stroke:none;font-family:TitilliumText25L;-inkscape-font-specification:TitilliumText25L Semi-Bold"
       xml:space="preserve"><tspan
         sodipodi:role="line"
         id="tspan25206">0.1</tspan></text>
    <rect
       style="fill:#f6f6f6;fill-opacity:1;stroke:#000000;stroke-width:1.79080713;stroke-linejoin:round;stroke-miterlimit:4;stroke-opacity:1;stroke-dasharray:none;stroke-dashoffset:0"
       id="rect25259"
       width="1417.3228"
       height="832.67719"
       x="35.433071"
       y="113.38577" />
    <text
       xml:space="preserve"
       style="font-size:14px;font-style:normal;font-variant:normal;font-weight:600;font-stretch:normal;text-align:start;line-height:125%;letter-spacing:0px;word-spacing:0px;writing-mode:lr-tb;text-anchor:start;fill:#000000;fill-opacity:1;stroke:none;font-family:TitilliumText25L;-inkscape-font-specification:TitilliumText25L Semi-Bold"
       x="35.433071"
       y="1008.9291"
       id="text25261"
       sodipodi:linespacing="125%"><tspan
         sodipodi:role="line"
         id="tspan25263"
         x="35.433071"
         y="1008.9291">Designed by:</tspan></text>
    <text
       sodipodi:linespacing="125%"
       id="text25265"
       y="973.49591"
       x="36.763069"
       style="font-size:14px;font-style:normal;font-variant:normal;font-weight:600;font-stretch:normal;text-align:start;line-height:125%;letter-spacing:0px;word-spacing:0px;writing-mode:lr-tb;text-anchor:start;fill:#000000;fill-opacity:1;stroke:none;font-family:TitilliumText25L;-inkscape-font-specification:TitilliumText25L Semi-Bold"
       xml:space="preserve"><tspan
         y="973.49591"
         x="36.763069"
         id="tspan25267"
         sodipodi:role="line">Project:</tspan></text>
    <text
       xml:space="preserve"
       style="font-size:14px;font-style:normal;font-variant:normal;font-weight:600;font-stretch:normal;text-align:start;line-height:125%;letter-spacing:0px;word-spacing:0px;writing-mode:lr-tb;text-anchor:start;fill:#000000;fill-opacity:1;stroke:none;font-family:TitilliumText25L;-inkscape-font-specification:TitilliumText25L Semi-Bold"
       x="407.48032"
       y="973.49591"
       id="text25269"
       sodipodi:linespacing="125%"><tspan
         sodipodi:role="line"
         id="tspan25271"
         x="407.48032"
         y="973.49591">Link:</tspan></text>
    <text
       sodipodi:linespacing="125%"
       id="text25273"
       y="1008.9291"
       x="406.67712"
       style="font-size:14px;font-style:normal;font-variant:normal;font-weight:600;font-stretch:normal;text-align:start;line-height:125%;letter-spacing:0px;word-spacing:0px;writing-mode:lr-tb;text-anchor:start;fill:#000000;fill-opacity:1;stroke:none;font-family:TitilliumText25L;-inkscape-font-specification:TitilliumText25L Semi-Bold"
       xml:space="preserve"><tspan
         y="1008.9291"
         x="406.67712"
         id="tspan25275"
         sodipodi:role="line">Designed for:</tspan></text>
    <path
       style="fill:none;stroke:#cfcfcf;stroke-width:1.41266513;stroke-linecap:butt;stroke-linejoin:miter;stroke-miterlimit:4;stroke-opacity:1;stroke-dasharray:1.41266519, 4.2379956;stroke-dashoffset:0"
       d="m 90.619013,973.496 c 246.404037,0 299.144767,0 299.144767,0"
       id="path25277"
       inkscape:connector-curvature="0"
       sodipodi:nodetypes="cc" />
    <path
       style="fill:none;stroke:#cfcfcf;stroke-width:1.50266027;stroke-linecap:butt;stroke-linejoin:miter;stroke-miterlimit:4;stroke-opacity:1;stroke-dasharray:1.50266029, 4.50798088;stroke-dashoffset:0"
       d="m 442.86516,973.496 c 298.71304,0 318.94586,0 318.94586,0"
       id="path25279"
       inkscape:connector-curvature="0"
       sodipodi:nodetypes="cc" />
    <path
       inkscape:connector-curvature="0"
       id="path25281"
       d="m 121.69116,1008.9293 c 232.33346,0 268.07262,0 268.07262,0"
       style="fill:none;stroke:#cfcfcf;stroke-width:1.3717382;stroke-linecap:butt;stroke-linejoin:miter;stroke-miterlimit:4;stroke-opacity:1;stroke-dasharray:1.37173832, 4.11521499;stroke-dashoffset:0"
       sodipodi:nodetypes="cc" />
    <path
       sodipodi:nodetypes="cc"
       style="fill:none;stroke:#cfcfcf;stroke-width:1.3717382;stroke-linecap:butt;stroke-linejoin:miter;stroke-miterlimit:4;stroke-opacity:1;stroke-dasharray:1.37173832, 4.11521499;stroke-dashoffset:0"
       d="m 495.23917,1008.9293 c 232.33346,0 267.92856,0 267.92856,0"
       id="path25301"
       inkscape:connector-curvature="0" />
    <a
       transform="matrix(0.56208624,0,0,0.56208624,1028.2309,540.82271)"
       xlink:title="CC BY-SA"
       xlink:href="http://creativecommons.org/licenses/by-sa/3.0/"
       id="a3133">
      <a
         id="a3150"
         xlink:href="http://www.mepss.nl/index.php?p=tool&amp;l4=W21"
         xlink:title="http://www.mepss.nl/index.php?p=tool&amp;l4=W21">
        <text
           sodipodi:linespacing="125%"
           style="font-size:16.01177784px;font-style:normal;font-variant:normal;font-weight:300;font-stretch:normal;text-align:start;line-height:125%;writing-mode:lr;text-anchor:start;font-family:TitilliumText25L;-inkscape-font-specification:TitilliumText25L Light"
           y="834.94757"
           x="-406.88306"
           id="text3135">
          <tspan
             id="tspan3148"
             sodipodi:role="line">Original development of the System Map: http://www.mepss.nl/index.php?p=tool&amp;l4=W21</tspan>
        </text>
      </a>
    </a>
    <text
       xml:space="preserve"
       style="font-size:15px;font-style:normal;font-variant:normal;font-weight:800;font-stretch:normal;text-align:start;line-height:125%;letter-spacing:0px;word-spacing:0px;writing-mode:lr-tb;text-anchor:start;fill:#000000;fill-opacity:1;stroke:none;font-family:TitilliumText25L;-inkscape-font-specification:TitilliumText25L Ultra-Bold"
       x="1019.8425"
       y="241.40152"
       id="text4062"
       sodipodi:linespacing="125%"><tspan
         sodipodi:role="line"
         id="tspan4064"
         x="1019.8425"
         y="241.40152">Boundaries of the Activity</tspan></text>
  </g>
  <g
     inkscape:groupmode="layer"
     id="layer3"
     inkscape:label="system map">
    <rect
       style="opacity:0.5;fill:#ffffff;fill-opacity:1;stroke:#797979;stroke-width:4.04215384;stroke-linecap:butt;stroke-linejoin:miter;stroke-miterlimit:4;stroke-opacity:1;stroke-dasharray:4.04215417, 8.08430834;stroke-dashoffset:0"
       id="rect5744"
       width="363.79388"
       height="215.58156"
       x="48.536324"
       y="715.74799" />
    <rect
       style="fill:#ffffff;fill-opacity:1;stroke:#000000;stroke-width:7.08661417;stroke-linecap:butt;stroke-linejoin:miter;stroke-miterlimit:4;stroke-opacity:1;stroke-dasharray:none;stroke-dashoffset:0"
       id="rect3155"
       width="761.81104"
       height="442.91336"
       x="425.19684"
       y="255.11809" />
    <g
       id="g5890"
       transform="translate(-20.798737,-9.2977834)">
      <path
         inkscape:connector-curvature="0"
         id="path4112"
         d="m 92.843366,780.79789 0,31.88976 53.149604,0"
         style="fill:none;stroke:#000000;stroke-width:10.62992096;stroke-linecap:butt;stroke-linejoin:miter;stroke-miterlimit:4;stroke-opacity:1;stroke-dasharray:none;marker-end:url(#TriangleOutS)" />
      <path
         style="opacity:0.5;fill:none;stroke:#000000;stroke-width:10.62992096;stroke-linecap:butt;stroke-linejoin:miter;stroke-miterlimit:4;stroke-opacity:1;stroke-dasharray:none;marker-end:url(#TriangleOutS)"
         d="m 92.843366,859.38056 0,31.88976 53.149604,0"
         id="path4932"
         inkscape:connector-curvature="0" />
      <text
         sodipodi:linespacing="125%"
         id="text5702"
         y="757.72455"
         x="90.753716"
         style="font-size:11px;font-style:normal;font-variant:normal;font-weight:800;font-stretch:normal;text-align:start;line-height:125%;letter-spacing:0px;word-spacing:0px;writing-mode:lr-tb;text-anchor:start;fill:#000000;fill-opacity:1;stroke:none;font-family:TitilliumText25L;-inkscape-font-specification:TitilliumText25L Ultra-Bold"
         xml:space="preserve"><tspan
           y="757.72455"
           x="90.753716"
           id="tspan5704"
           sodipodi:role="line">Material flow</tspan></text>
      <path
         style="fill:none;stroke:#000000;stroke-width:3.54330707;stroke-linecap:butt;stroke-linejoin:miter;stroke-miterlimit:4;stroke-opacity:1;stroke-dasharray:3.54330709, 3.54330709;stroke-dashoffset:0;marker-end:url(#DiamondS)"
         d="m 223.66724,779.76268 0,31.88977 53.1496,0"
         id="path4934"
         inkscape:connector-curvature="0" />
      <path
         inkscape:connector-curvature="0"
         id="path4936"
         d="m 223.66724,858.34535 0,31.88977 53.1496,0"
         style="opacity:0.5;fill:none;stroke:#000000;stroke-width:3.54330707;stroke-linecap:butt;stroke-linejoin:miter;stroke-miterlimit:4;stroke-opacity:1;stroke-dasharray:3.54330709, 3.54330709;stroke-dashoffset:0;marker-end:url(#DiamondS)" />
      <text
         xml:space="preserve"
         style="font-size:11px;font-style:normal;font-variant:normal;font-weight:800;font-stretch:normal;text-align:start;line-height:125%;letter-spacing:0px;word-spacing:0px;writing-mode:lr-tb;text-anchor:start;fill:#000000;fill-opacity:1;stroke:none;font-family:TitilliumText25L;-inkscape-font-specification:TitilliumText25L Ultra-Bold"
         x="211.85667"
         y="757.72455"
         id="text5706"
         sodipodi:linespacing="125%"><tspan
           sodipodi:role="line"
           id="tspan5708"
           x="211.85667"
           y="757.72455">Information flow</tspan></text>
      <path
         inkscape:connector-curvature="0"
         id="path4938"
         d="m 352.42522,779.6906 0,31.88977 53.14961,0"
         style="fill:none;stroke:#000000;stroke-width:5.31496048;stroke-linecap:butt;stroke-linejoin:miter;stroke-miterlimit:4;stroke-opacity:1;stroke-dasharray:5.31496063, 10.62992126;stroke-dashoffset:0;marker-end:url(#DotS)" />
      <path
         style="opacity:0.5;fill:none;stroke:#000000;stroke-width:5.31496048;stroke-linecap:butt;stroke-linejoin:miter;stroke-miterlimit:4;stroke-opacity:1;stroke-dasharray:5.31496063, 10.62992126;stroke-dashoffset:0;marker-end:url(#DotS)"
         d="m 352.42522,858.27327 0,31.88977 53.14961,0"
         id="path4940"
         inkscape:connector-curvature="0" />
      <text
         sodipodi:linespacing="125%"
         id="text5710"
         y="757.72455"
         x="347.03046"
         style="font-size:11px;font-style:normal;font-variant:normal;font-weight:800;font-stretch:normal;text-align:start;line-height:125%;letter-spacing:0px;word-spacing:0px;writing-mode:lr-tb;text-anchor:start;fill:#000000;fill-opacity:1;stroke:none;font-family:TitilliumText25L;-inkscape-font-specification:TitilliumText25L Ultra-Bold"
         xml:space="preserve"><tspan
           y="757.72455"
           x="347.03046"
           id="tspan5712"
           sodipodi:role="line">Financial flow</tspan></text>
      <text
         xml:space="preserve"
         style="font-size:10px;font-style:normal;font-variant:normal;font-weight:normal;font-stretch:normal;text-align:start;line-height:125%;letter-spacing:0px;word-spacing:0px;writing-mode:lr-tb;text-anchor:start;fill:#000000;fill-opacity:1;stroke:none;font-family:TitilliumText25L;-inkscape-font-specification:TitilliumText25L"
         x="102.5121"
         y="835.72455"
         id="text5854"
         sodipodi:linespacing="125%"><tspan
           y="835.72455"
           x="102.5121"
           id="tspan5866"
           sodipodi:role="line">Core flow</tspan></text>
      <text
         sodipodi:linespacing="125%"
         id="text5858"
         y="835.72455"
         x="231.86479"
         style="font-size:10px;font-style:normal;font-variant:normal;font-weight:normal;font-stretch:normal;text-align:start;line-height:125%;letter-spacing:0px;word-spacing:0px;writing-mode:lr-tb;text-anchor:start;fill:#000000;fill-opacity:1;stroke:none;font-family:TitilliumText25L;-inkscape-font-specification:TitilliumText25L"
         xml:space="preserve"><tspan
           y="835.72455"
           x="231.86479"
           id="tspan5868"
           sodipodi:role="line">Core flow</tspan></text>
      <text
         xml:space="preserve"
         style="font-size:10px;font-style:normal;font-variant:normal;font-weight:normal;font-stretch:normal;text-align:start;line-height:125%;letter-spacing:0px;word-spacing:0px;writing-mode:lr-tb;text-anchor:start;fill:#000000;fill-opacity:1;stroke:none;font-family:TitilliumText25L;-inkscape-font-specification:TitilliumText25L"
         x="360.38943"
         y="835.72455"
         id="text5862"
         sodipodi:linespacing="125%"><tspan
           y="835.72455"
           x="360.38943"
           id="tspan5870"
           sodipodi:role="line">Core flow</tspan></text>
      <text
         sodipodi:linespacing="125%"
         id="text5872"
         y="915.72455"
         x="87.502647"
         style="font-size:10px;font-style:normal;font-variant:normal;font-weight:normal;font-stretch:normal;text-align:start;line-height:125%;letter-spacing:0px;word-spacing:0px;writing-mode:lr-tb;text-anchor:start;fill:#000000;fill-opacity:1;stroke:none;font-family:TitilliumText25L;-inkscape-font-specification:TitilliumText25L"
         xml:space="preserve"><tspan
           y="915.72455"
           x="87.502647"
           id="tspan5884"
           sodipodi:role="line">Back-office flow</tspan></text>
      <text
         xml:space="preserve"
         style="font-size:10px;font-style:normal;font-variant:normal;font-weight:normal;font-stretch:normal;text-align:start;line-height:125%;letter-spacing:0px;word-spacing:0px;writing-mode:lr-tb;text-anchor:start;fill:#000000;fill-opacity:1;stroke:none;font-family:TitilliumText25L;-inkscape-font-specification:TitilliumText25L"
         x="216.85535"
         y="915.72455"
         id="text5876"
         sodipodi:linespacing="125%"><tspan
           y="915.72455"
           x="216.85535"
           id="tspan5886"
           sodipodi:role="line">Back-office flow</tspan></text>
      <text
         sodipodi:linespacing="125%"
         id="text5880"
         y="915.72455"
         x="345.37997"
         style="font-size:10px;font-style:normal;font-variant:normal;font-weight:normal;font-stretch:normal;text-align:start;line-height:125%;letter-spacing:0px;word-spacing:0px;writing-mode:lr-tb;text-anchor:start;fill:#000000;fill-opacity:1;stroke:none;font-family:TitilliumText25L;-inkscape-font-specification:TitilliumText25L"
         xml:space="preserve"><tspan
           y="915.72455"
           x="345.37997"
           id="tspan5888"
           sodipodi:role="line">Back-office flow</tspan></text>
    </g>
  </g>
  <g
     inkscape:groupmode="layer"
     id="layer2"
     inkscape:label="Editable text"
     style="display:inline">
    <text
       sodipodi:linespacing="125%"
       id="text25285"
       y="1008.9292"
       x="119.67056"
       style="font-size:14px;font-style:normal;font-variant:normal;font-weight:300;font-stretch:normal;text-align:start;line-height:125%;letter-spacing:0px;word-spacing:0px;writing-mode:lr-tb;text-anchor:start;fill:#000000;fill-opacity:1;stroke:none;font-family:TitilliumText25L;-inkscape-font-specification:TitilliumText25L Light"
       xml:space="preserve"><tspan
         sodipodi:role="line"
         id="tspan25287"
         style="font-size:14px;font-style:normal;font-variant:normal;font-weight:300;font-stretch:normal;text-align:start;line-height:125%;writing-mode:lr-tb;text-anchor:start;font-family:TitilliumText25L;-inkscape-font-specification:TitilliumText25L Light"
         x="119.67056"
         y="1008.9292">Name Surname - ...</tspan></text>
    <text
       xml:space="preserve"
       style="font-size:14px;font-style:normal;font-variant:normal;font-weight:300;font-stretch:normal;text-align:start;line-height:125%;letter-spacing:0px;word-spacing:0px;writing-mode:lr-tb;text-anchor:start;fill:#000000;fill-opacity:1;stroke:none;font-family:TitilliumText25L;-inkscape-font-specification:TitilliumText25L Light"
       x="88.58268"
       y="973.49603"
       id="text25289"
       sodipodi:linespacing="125%"><tspan
         style="font-size:14px;font-style:normal;font-variant:normal;font-weight:300;font-stretch:normal;text-align:start;line-height:125%;writing-mode:lr-tb;text-anchor:start;font-family:TitilliumText25L;-inkscape-font-specification:TitilliumText25L Light"
         id="tspan25291"
         sodipodi:role="line"
         x="88.58268"
         y="973.49603">Name of the project</tspan></text>
    <text
       sodipodi:linespacing="125%"
       id="text25293"
       y="973.49603"
       x="440.89307"
       style="font-size:14px;font-style:normal;font-variant:normal;font-weight:300;font-stretch:normal;text-align:start;line-height:125%;letter-spacing:0px;word-spacing:0px;writing-mode:lr-tb;text-anchor:start;fill:#000000;fill-opacity:1;stroke:none;font-family:TitilliumText25L;-inkscape-font-specification:TitilliumText25L Light"
       xml:space="preserve"><tspan
         y="973.49603"
         x="440.89307"
         sodipodi:role="line"
         id="tspan25295"
         style="font-size:14px;font-style:normal;font-variant:normal;font-weight:300;font-stretch:normal;text-align:start;line-height:125%;writing-mode:lr-tb;text-anchor:start;font-family:TitilliumText25L;-inkscape-font-specification:TitilliumText25L Light">http://www.google.com</tspan></text>
    <text
       xml:space="preserve"
       style="font-size:14px;font-style:normal;font-variant:normal;font-weight:300;font-stretch:normal;text-align:start;line-height:125%;letter-spacing:0px;word-spacing:0px;writing-mode:lr-tb;text-anchor:start;fill:#000000;fill-opacity:1;stroke:none;font-family:TitilliumText25L;-inkscape-font-specification:TitilliumText25L Light"
       x="493.81128"
       y="1008.9292"
       id="text25297"
       sodipodi:linespacing="125%"><tspan
         y="1008.9292"
         x="493.81128"
         style="font-size:14px;font-style:normal;font-variant:normal;font-weight:300;font-stretch:normal;text-align:start;line-height:125%;writing-mode:lr-tb;text-anchor:start;font-family:TitilliumText25L;-inkscape-font-specification:TitilliumText25L Light"
         id="tspan25299"
         sodipodi:role="line">Community / Place / Organization</tspan></text>
  </g>
</svg>
